<svg xmlns="http://www.w3.org/2000/svg" width="20" height="20" viewBox="0 0 20 20" fill="#000">
    <path d="M1.25 12.2422C1.25 11.4871 1.8621 10.875 2.61715 10.875H7.75765C8.51271 10.875 9.12481 11.4871 9.12481 12.2422V17.3828C9.12481 18.1379 8.51271 18.75 7.75765 18.75H2.61715C1.8621 18.75 1.25 18.1379 1.25 17.3828V12.2422Z" fill="#000"/>
    <path d="M10.8748 5.1875C10.8748 3.01288 12.6376 1.25 14.8122 1.25C16.9867 1.25 18.7496 3.01288 18.7496 5.1875C18.7496 7.36212 16.9867 9.125 14.8122 9.125C12.6376 9.125 10.8748 7.36212 10.8748 5.1875Z" fill="#000"/>
    <path d="M1.25 2.61719C1.25 1.86211 1.8621 1.25 2.61715 1.25H7.75765C8.51271 1.25 9.12481 1.86211 9.12481 2.61719V7.75781C9.12481 8.51289 8.51271 9.125 7.75765 9.125H2.61715C1.8621 9.125 1.25 8.51289 1.25 7.75781V2.61719Z" fill="#000"/>
    <rect x="10.8752" y="16.9999" width="7.87481" height="1.16667" rx="0.583333" fill="#000"/>
    <rect x="10.8752" y="11.458" width="7.87481" height="1.16667" rx="0.583333" fill="#000"/>
    <rect x="10.8752" y="14.0829" width="7.87481" height="1.16667" rx="0.583333" fill="#000"/>
</svg>