<svg width="180" height="180" viewBox="0 0 180 180" fill="none" xmlns="http://www.w3.org/2000/svg">
<g clip-path="url(#clip0_1137_16658)">
<path d="M-0.40332 113.062C-0.40332 105.296 5.89255 99 13.6589 99H66.5329C74.2992 99 80.5951 105.296 80.5951 113.062V165.938C80.5951 173.704 74.2992 180 66.5329 180H13.6589C5.89256 180 -0.40332 173.704 -0.40332 165.938V113.062Z" fill="#641DD7" fill-opacity="0.05"/>
<path d="M98.5948 40.5C98.5948 18.1325 116.727 0 139.094 0C161.461 0 179.593 18.1325 179.593 40.5C179.593 62.8675 161.461 81 139.094 81C116.727 81 98.5948 62.8675 98.5948 40.5Z" fill="#641DD7" fill-opacity="0.05"/>
<path d="M-0.40332 14.0625C-0.40332 6.296 5.89255 0 13.6589 0H66.5329C74.2992 0 80.5951 6.29599 80.5951 14.0625V66.9375C80.5951 74.704 74.2992 81 66.5329 81H13.6589C5.89256 81 -0.40332 74.704 -0.40332 66.9375V14.0625Z" fill="#641DD7" fill-opacity="0.05"/>
<rect x="98.5981" y="162.001" width="80.9984" height="12" rx="6" fill="#641DD7" fill-opacity="0.05"/>
<rect x="98.5981" y="104.995" width="80.9984" height="12" rx="6" fill="#641DD7" fill-opacity="0.05"/>
<rect x="98.5981" y="131.996" width="80.9984" height="12" rx="6" fill="#641DD7" fill-opacity="0.05"/>
</g>
<defs>
<clipPath id="clip0_1137_16658">
<rect width="180" height="180" fill="white"/>
</clipPath>
</defs>
</svg>
