<svg width="254" height="270" viewBox="0 0 254 270" fill="none" xmlns="http://www.w3.org/2000/svg">
<g clip-path="url(#clip0_7636_166347)">
<rect x="1" y="1" width="252" height="264" rx="4" fill="white"/>
<rect x="1" y="1" width="252" height="26" fill="#D9D9D9"/>
<path d="M17.8849 19V8.81818H20.0376V17.2251H24.4027V19H17.8849ZM29.2388 19.1491C28.4666 19.1491 27.7987 18.9851 27.2353 18.657C26.6751 18.3255 26.2426 17.8648 25.9377 17.2749C25.6328 16.6816 25.4803 15.9938 25.4803 15.2116C25.4803 14.4228 25.6328 13.7334 25.9377 13.1435C26.2426 12.5502 26.6751 12.0895 27.2353 11.7614C27.7987 11.4299 28.4666 11.2642 29.2388 11.2642C30.0111 11.2642 30.6773 11.4299 31.2374 11.7614C31.8008 12.0895 32.235 12.5502 32.54 13.1435C32.8449 13.7334 32.9973 14.4228 32.9973 15.2116C32.9973 15.9938 32.8449 16.6816 32.54 17.2749C32.235 17.8648 31.8008 18.3255 31.2374 18.657C30.6773 18.9851 30.0111 19.1491 29.2388 19.1491ZM29.2488 17.5085C29.6001 17.5085 29.8934 17.4091 30.1287 17.2102C30.3641 17.008 30.5414 16.733 30.6607 16.3849C30.7833 16.0369 30.8446 15.6409 30.8446 15.1967C30.8446 14.7526 30.7833 14.3565 30.6607 14.0085C30.5414 13.6605 30.3641 13.3854 30.1287 13.1832C29.8934 12.9811 29.6001 12.88 29.2488 12.88C28.8941 12.88 28.5958 12.9811 28.3539 13.1832C28.1152 13.3854 27.9346 13.6605 27.812 14.0085C27.6926 14.3565 27.633 14.7526 27.633 15.1967C27.633 15.6409 27.6926 16.0369 27.812 16.3849C27.9346 16.733 28.1152 17.008 28.3539 17.2102C28.5958 17.4091 28.8941 17.5085 29.2488 17.5085ZM37.8148 22.0227C37.1287 22.0227 36.5404 21.9283 36.0499 21.7393C35.5627 21.5537 35.1749 21.3002 34.8865 20.9787C34.5982 20.6572 34.4109 20.2959 34.3248 19.8949L36.2836 19.6314C36.3432 19.7839 36.4377 19.9264 36.5669 20.0589C36.6962 20.1915 36.8669 20.2976 37.079 20.3771C37.2944 20.46 37.5563 20.5014 37.8645 20.5014C38.3252 20.5014 38.7047 20.3887 39.003 20.1634C39.3046 19.9413 39.4554 19.5684 39.4554 19.0447V17.6477H39.3659C39.2731 17.8598 39.1339 18.0604 38.9483 18.2493C38.7627 18.4382 38.5241 18.5923 38.2324 18.7116C37.9408 18.831 37.5927 18.8906 37.1884 18.8906C36.615 18.8906 36.093 18.758 35.6223 18.4929C35.155 18.2244 34.7821 17.8151 34.5037 17.2649C34.2286 16.7114 34.0911 16.0121 34.0911 15.1669C34.0911 14.3018 34.2319 13.5793 34.5137 12.9993C34.7954 12.4193 35.1699 11.9851 35.6373 11.6967C36.1079 11.4084 36.6233 11.2642 37.1834 11.2642C37.611 11.2642 37.9689 11.3371 38.2573 11.483C38.5456 11.6255 38.7776 11.8045 38.9533 12.0199C39.1323 12.232 39.2698 12.4408 39.3659 12.6463H39.4455V11.3636H41.5485V19.0746C41.5485 19.7242 41.3894 20.2678 41.0712 20.7053C40.753 21.1428 40.3122 21.4709 39.7488 21.6896C39.1886 21.9117 38.544 22.0227 37.8148 22.0227ZM37.8596 17.2997C38.2009 17.2997 38.4893 17.2152 38.7246 17.0462C38.9632 16.8738 39.1455 16.6286 39.2715 16.3104C39.4007 15.9889 39.4654 15.6044 39.4654 15.157C39.4654 14.7095 39.4024 14.3217 39.2765 13.9936C39.1505 13.6622 38.9682 13.4053 38.7296 13.223C38.4909 13.0407 38.2009 12.9496 37.8596 12.9496C37.5115 12.9496 37.2182 13.044 36.9796 13.233C36.7409 13.4186 36.5603 13.6771 36.4377 14.0085C36.315 14.34 36.2537 14.7228 36.2537 15.157C36.2537 15.5978 36.315 15.9789 36.4377 16.3004C36.5636 16.6186 36.7443 16.8655 36.9796 17.0412C37.2182 17.2135 37.5115 17.2997 37.8596 17.2997ZM46.6841 19.1491C45.9119 19.1491 45.244 18.9851 44.6806 18.657C44.1204 18.3255 43.6879 17.8648 43.383 17.2749C43.0781 16.6816 42.9256 15.9938 42.9256 15.2116C42.9256 14.4228 43.0781 13.7334 43.383 13.1435C43.6879 12.5502 44.1204 12.0895 44.6806 11.7614C45.244 11.4299 45.9119 11.2642 46.6841 11.2642C47.4564 11.2642 48.1226 11.4299 48.6827 11.7614C49.2462 12.0895 49.6803 12.5502 49.9853 13.1435C50.2902 13.7334 50.4426 14.4228 50.4426 15.2116C50.4426 15.9938 50.2902 16.6816 49.9853 17.2749C49.6803 17.8648 49.2462 18.3255 48.6827 18.657C48.1226 18.9851 47.4564 19.1491 46.6841 19.1491ZM46.6941 17.5085C47.0454 17.5085 47.3387 17.4091 47.574 17.2102C47.8094 17.008 47.9867 16.733 48.106 16.3849C48.2286 16.0369 48.29 15.6409 48.29 15.1967C48.29 14.7526 48.2286 14.3565 48.106 14.0085C47.9867 13.6605 47.8094 13.3854 47.574 13.1832C47.3387 12.9811 47.0454 12.88 46.6941 12.88C46.3394 12.88 46.0411 12.9811 45.7992 13.1832C45.5605 13.3854 45.3799 13.6605 45.2573 14.0085C45.138 14.3565 45.0783 14.7526 45.0783 15.1967C45.0783 15.6409 45.138 16.0369 45.2573 16.3849C45.3799 16.733 45.5605 17.008 45.7992 17.2102C46.0411 17.4091 46.3394 17.5085 46.6941 17.5085Z" fill="#757575"/>
<rect x="89" y="12" width="14" height="4" rx="2" fill="#757575"/>
<rect x="111" y="12" width="14" height="4" rx="2" fill="#757575"/>
<rect x="133" y="12" width="14" height="4" rx="2" fill="#757575"/>
<rect x="155" y="12" width="14" height="4" rx="2" fill="#757575"/>
<rect x="207" y="8" width="30" height="12" rx="6" fill="#757575"/>
<rect x="215" y="12" width="14" height="4" rx="2" fill="white"/>
<rect x="17" y="37" width="220" height="87" fill="#D9D9D9"/>
<g filter="url(#filter0_d_7636_166347)">
<rect x="26" y="81" width="111" height="59" fill="white"/>
</g>
<rect x="34" y="89" width="85" height="6" rx="3" fill="#292929"/>
<rect x="34" y="100" width="85" height="4" rx="2" fill="#757575"/>
<rect x="34" y="106" width="70" height="4" rx="2" fill="#757575"/>
<rect x="34" y="120" width="38" height="12" rx="6" fill="#292929"/>
<rect x="46" y="124" width="14" height="4" rx="2" fill="white"/>
<rect x="17" y="156" width="78" height="8" rx="4" fill="#292929"/>
<rect x="17" y="170" width="50" height="34" fill="#D9D9D9"/>
<rect x="17" y="208" width="47" height="5" rx="2.5" fill="#292929"/>
<rect x="17" y="215" width="16" height="4" rx="2" fill="#757575"/>
<rect x="35" y="215" width="18" height="4" rx="2" fill="#757575"/>
<rect x="73.6667" y="170" width="50" height="34" fill="#D9D9D9"/>
<rect x="73.6667" y="208" width="47" height="5" rx="2.5" fill="#292929"/>
<rect x="73.6667" y="215" width="16" height="4" rx="2" fill="#757575"/>
<rect x="91.6667" y="215" width="18" height="4" rx="2" fill="#757575"/>
<rect x="130.333" y="170" width="50" height="34" fill="#D9D9D9"/>
<rect x="130.333" y="208" width="47" height="5" rx="2.5" fill="#292929"/>
<rect x="130.333" y="215" width="16" height="4" rx="2" fill="#757575"/>
<rect x="148.333" y="215" width="18" height="4" rx="2" fill="#757575"/>
<rect x="187" y="170" width="50" height="34" fill="#D9D9D9"/>
<rect x="187" y="208" width="47" height="5" rx="2.5" fill="#292929"/>
<rect x="187" y="215" width="16" height="4" rx="2" fill="#757575"/>
<rect x="205" y="215" width="18" height="4" rx="2" fill="#757575"/>
<rect x="1" y="239" width="252" height="26" fill="#D9D9D9"/>
<path d="M17.6321 251V243.727H19.1697V249.732H22.2876V251H17.6321ZM25.742 251.107C25.1904 251.107 24.7134 250.989 24.3109 250.755C23.9108 250.518 23.6019 250.189 23.3841 249.768C23.1663 249.344 23.0574 248.853 23.0574 248.294C23.0574 247.731 23.1663 247.238 23.3841 246.817C23.6019 246.393 23.9108 246.064 24.3109 245.83C24.7134 245.593 25.1904 245.474 25.742 245.474C26.2936 245.474 26.7695 245.593 27.1696 245.83C27.572 246.064 27.8822 246.393 28.1 246.817C28.3178 247.238 28.4267 247.731 28.4267 248.294C28.4267 248.853 28.3178 249.344 28.1 249.768C27.8822 250.189 27.572 250.518 27.1696 250.755C26.7695 250.989 26.2936 251.107 25.742 251.107ZM25.7491 249.935C26.0001 249.935 26.2096 249.864 26.3777 249.722C26.5458 249.577 26.6724 249.381 26.7576 249.132C26.8452 248.884 26.889 248.601 26.889 248.283C26.889 247.966 26.8452 247.683 26.7576 247.435C26.6724 247.186 26.5458 246.99 26.3777 246.845C26.2096 246.701 26.0001 246.629 25.7491 246.629C25.4958 246.629 25.2827 246.701 25.1099 246.845C24.9395 246.99 24.8104 247.186 24.7228 247.435C24.6376 247.683 24.595 247.966 24.595 248.283C24.595 248.601 24.6376 248.884 24.7228 249.132C24.8104 249.381 24.9395 249.577 25.1099 249.722C25.2827 249.864 25.4958 249.935 25.7491 249.935ZM31.8677 253.159C31.3777 253.159 30.9574 253.092 30.6071 252.957C30.2591 252.824 29.9821 252.643 29.7761 252.413C29.5701 252.184 29.4364 251.926 29.3748 251.639L30.774 251.451C30.8166 251.56 30.8841 251.662 30.9764 251.756C31.0687 251.851 31.1906 251.927 31.3422 251.984C31.496 252.043 31.6831 252.072 31.9032 252.072C32.2323 252.072 32.5034 251.992 32.7164 251.831C32.9319 251.672 33.0396 251.406 33.0396 251.032V250.034H32.9757C32.9094 250.186 32.81 250.329 32.6774 250.464C32.5448 250.599 32.3743 250.709 32.166 250.794C31.9577 250.879 31.7091 250.922 31.4203 250.922C31.0107 250.922 30.6378 250.827 30.3017 250.638C29.9679 250.446 29.7015 250.154 29.5027 249.761C29.3062 249.365 29.2079 248.866 29.2079 248.262C29.2079 247.644 29.3085 247.128 29.5098 246.714C29.711 246.299 29.9785 245.989 30.3123 245.783C30.6485 245.577 31.0166 245.474 31.4167 245.474C31.7221 245.474 31.9778 245.527 32.1838 245.631C32.3897 245.732 32.5555 245.86 32.6809 246.014C32.8088 246.166 32.907 246.315 32.9757 246.462H33.0325V245.545H34.5346V251.053C34.5346 251.517 34.421 251.906 34.1937 252.218C33.9664 252.531 33.6516 252.765 33.2491 252.921C32.849 253.08 32.3886 253.159 31.8677 253.159ZM31.8997 249.786C32.1435 249.786 32.3495 249.725 32.5176 249.604C32.688 249.481 32.8182 249.306 32.9082 249.079C33.0005 248.849 33.0467 248.575 33.0467 248.255C33.0467 247.935 33.0017 247.658 32.9118 247.424C32.8218 247.187 32.6916 247.004 32.5211 246.874C32.3507 246.743 32.1435 246.678 31.8997 246.678C31.6511 246.678 31.4416 246.746 31.2711 246.881C31.1007 247.013 30.9717 247.198 30.8841 247.435C30.7965 247.671 30.7527 247.945 30.7527 248.255C30.7527 248.57 30.7965 248.842 30.8841 249.072C30.974 249.299 31.103 249.475 31.2711 249.601C31.4416 249.724 31.6511 249.786 31.8997 249.786ZM38.2029 251.107C37.6513 251.107 37.1743 250.989 36.7718 250.755C36.3717 250.518 36.0628 250.189 35.845 249.768C35.6272 249.344 35.5183 248.853 35.5183 248.294C35.5183 247.731 35.6272 247.238 35.845 246.817C36.0628 246.393 36.3717 246.064 36.7718 245.83C37.1743 245.593 37.6513 245.474 38.2029 245.474C38.7546 245.474 39.2304 245.593 39.6305 245.83C40.033 246.064 40.3431 246.393 40.5609 246.817C40.7787 247.238 40.8876 247.731 40.8876 248.294C40.8876 248.853 40.7787 249.344 40.5609 249.768C40.3431 250.189 40.033 250.518 39.6305 250.755C39.2304 250.989 38.7546 251.107 38.2029 251.107ZM38.21 249.935C38.461 249.935 38.6705 249.864 38.8386 249.722C39.0067 249.577 39.1333 249.381 39.2186 249.132C39.3062 248.884 39.35 248.601 39.35 248.283C39.35 247.966 39.3062 247.683 39.2186 247.435C39.1333 247.186 39.0067 246.99 38.8386 246.845C38.6705 246.701 38.461 246.629 38.21 246.629C37.9567 246.629 37.7437 246.701 37.5708 246.845C37.4004 246.99 37.2714 247.186 37.1838 247.435C37.0985 247.683 37.0559 247.966 37.0559 248.283C37.0559 248.601 37.0985 248.884 37.1838 249.132C37.2714 249.381 37.4004 249.577 37.5708 249.722C37.7437 249.864 37.9567 249.935 38.21 249.935Z" fill="#757575"/>
<rect x="75" y="243.5" width="14" height="2" rx="1" fill="#757575"/>
<rect x="75" y="248.5" width="14" height="2" rx="1" fill="#757575"/>
<rect x="75" y="253.5" width="14" height="2" rx="1" fill="#757575"/>
<rect x="75" y="258.5" width="14" height="2" rx="1" fill="#757575"/>
<rect x="112" y="243.5" width="14" height="2" rx="1" fill="#757575"/>
<rect x="112" y="248.5" width="14" height="2" rx="1" fill="#757575"/>
<rect x="112" y="253.5" width="14" height="2" rx="1" fill="#757575"/>
<rect x="112" y="258.5" width="14" height="2" rx="1" fill="#757575"/>
<rect x="149" y="243.5" width="14" height="2" rx="1" fill="#757575"/>
<rect x="149" y="248.5" width="14" height="2" rx="1" fill="#757575"/>
<rect x="149" y="253.5" width="14" height="2" rx="1" fill="#757575"/>
<rect x="149" y="258.5" width="14" height="2" rx="1" fill="#757575"/>
<rect x="189.25" y="245.25" width="47.5" height="7.5" rx="3.75" fill="white"/>
<rect x="189.25" y="245.25" width="47.5" height="7.5" rx="3.75" stroke="#757575" stroke-width="0.5"/>
<rect x="193" y="247.5" width="16" height="3" rx="1.5" fill="#757575"/>
<path d="M225.5 245.5H233C234.933 245.5 236.5 247.067 236.5 249C236.5 250.933 234.933 252.5 233 252.5H225.5V245.5Z" fill="#757575"/>
<path d="M225.5 245.5H233C234.933 245.5 236.5 247.067 236.5 249C236.5 250.933 234.933 252.5 233 252.5H225.5V245.5Z" stroke="#757575"/>
<rect x="228" y="247.5" width="6" height="3" rx="1.5" fill="white"/>
<rect x="17" y="255" width="22" height="2" rx="1" fill="#757575"/>
<rect x="17" y="258" width="17" height="2" rx="1" fill="#757575"/>
<circle cx="191" cy="257" r="2" fill="#757575"/>
<circle cx="198" cy="257" r="2" fill="#757575"/>
<circle cx="205" cy="257" r="2" fill="#757575"/>
<circle cx="212" cy="257" r="2" fill="#757575"/>
</g>
<path d="M249 0.517073H5C2.52415 0.517073 0.517073 2.52414 0.517073 5V265C0.517073 267.476 2.52415 269.483 5 269.483H249C251.476 269.483 253.483 267.476 253.483 265V5C253.483 2.52415 251.476 0.517073 249 0.517073Z" fill="#FAEAE9" fill-opacity="0.9" stroke="#F05D31" stroke-width="0.965854"/>
<defs>
<filter id="filter0_d_7636_166347" x="22" y="77" width="123" height="71" filterUnits="userSpaceOnUse" color-interpolation-filters="sRGB">
<feFlood flood-opacity="0" result="BackgroundImageFix"/>
<feColorMatrix in="SourceAlpha" type="matrix" values="0 0 0 0 0 0 0 0 0 0 0 0 0 0 0 0 0 0 127 0" result="hardAlpha"/>
<feOffset dx="2" dy="2"/>
<feGaussianBlur stdDeviation="3"/>
<feComposite in2="hardAlpha" operator="out"/>
<feColorMatrix type="matrix" values="0 0 0 0 0 0 0 0 0 0 0 0 0 0 0 0 0 0 0.11 0"/>
<feBlend mode="normal" in2="BackgroundImageFix" result="effect1_dropShadow_7636_166347"/>
<feBlend mode="normal" in="SourceGraphic" in2="effect1_dropShadow_7636_166347" result="shape"/>
</filter>
<clipPath id="clip0_7636_166347">
<rect x="1" y="1" width="252" height="264" rx="4" fill="white"/>
</clipPath>
</defs>
</svg>
