<svg xmlns="http://www.w3.org/2000/svg" width="15" height="15" viewBox="0 0 20 20" fill="#fff"><path d="M1.25 12.242c0-.755.612-1.367 1.367-1.367h5.14c.756 0 1.368.612 1.368 1.367v5.14c0 .756-.612 1.368-1.367 1.368h-5.14a1.367 1.367 0 0 1-1.368-1.367zm9.625-7.054a3.937 3.937 0 1 1 7.875 0 3.937 3.937 0 0 1-7.875 0M1.25 2.617c0-.755.612-1.367 1.367-1.367h5.14c.756 0 1.368.612 1.368 1.367v5.14c0 .756-.612 1.368-1.367 1.368h-5.14A1.367 1.367 0 0 1 1.25 7.758zM11.458 17h6.709a.583.583 0 0 1 .583.583v.001a.583.583 0 0 1-.583.583h-6.709a.583.583 0 0 1-.583-.583v-.001a.583.583 0 0 1 .583-.583m0-5.542h6.709a.583.583 0 0 1 .583.583v.001a.583.583 0 0 1-.583.583h-6.709a.583.583 0 0 1-.583-.583v-.001a.583.583 0 0 1 .583-.583m0 2.625h6.709a.583.583 0 0 1 .583.583v.001a.583.583 0 0 1-.583.583h-6.709a.583.583 0 0 1-.583-.583v-.001a.583.583 0 0 1 .583-.583"/></svg>