<svg width="800" height="800" viewBox="0 0 800 800" fill="none" xmlns="http://www.w3.org/2000/svg">
<path d="M0 100C0 44.7715 44.7715 0 100 0H700C755.229 0 800 44.7715 800 100V700C800 755.229 755.229 800 700 800H100C44.7715 800 0 755.229 0 700V100Z" fill="url(#paint0_linear_22696_7465)"/>
<path d="M115.997 471.75C115.997 447.588 135.584 428 159.746 428H324.244C348.406 428 367.994 447.588 367.994 471.75V636.25C367.994 660.413 348.406 680 324.244 680H159.746C135.584 680 115.997 660.413 115.997 636.25V471.75Z" fill="white"/>
<path d="M423.993 246C423.993 176.412 480.404 120 549.991 120C619.578 120 675.989 176.412 675.989 246C675.989 315.588 619.578 372 549.991 372C480.404 372 423.993 315.588 423.993 246Z" fill="white"/>
<path d="M115.997 163.75C115.997 139.588 135.584 120 159.746 120H324.244C348.406 120 367.994 139.588 367.994 163.75V328.25C367.994 352.413 348.406 372 324.244 372H159.746C135.584 372 115.997 352.413 115.997 328.25V163.75Z" fill="white"/>
<path d="M424.003 465.334C424.003 455.025 432.36 446.668 442.67 446.668H657.333C667.642 446.668 675.999 455.025 675.999 465.334C675.999 475.644 667.642 484.001 657.333 484.001H442.67C432.36 484.001 424.003 475.644 424.003 465.334Z" fill="white"/>
<path d="M424.003 553.868C424.003 543.558 432.36 535.201 442.67 535.201H657.333C667.642 535.201 675.999 543.558 675.999 553.868C675.999 564.177 667.642 572.534 657.333 572.534H442.67C432.36 572.534 424.003 564.177 424.003 553.868Z" fill="white"/>
<path d="M424.003 642.401C424.003 632.092 432.36 623.734 442.67 623.734H657.333C667.642 623.734 675.999 632.092 675.999 642.401C675.999 652.71 667.642 661.068 657.333 661.068H442.67C432.36 661.068 424.003 652.71 424.003 642.401Z" fill="white"/>
<defs>
<linearGradient id="paint0_linear_22696_7465" x1="400" y1="0" x2="400" y2="800" gradientUnits="userSpaceOnUse">
<stop stop-color="#641DD7"/>
<stop offset="1" stop-color="#4608AD"/>
</linearGradient>
</defs>
</svg>
