<svg width="1200" height="1202" viewBox="0 0 1200 1202" fill="none" xmlns="http://www.w3.org/2000/svg">
<path d="M249.541 1140.98C318.063 1184.43 367.329 1196.09 448.274 1201.49C530.193 1206.95 655.646 1166.91 655.646 1166.91C655.646 1166.91 798.647 1120.92 880.3 1071.83C988.867 1006.57 1082.94 907.598 1122.23 855.736C1161.53 803.874 1200.12 718.425 1200 622.354C1199.9 537.963 1177.24 490.383 1139.52 414.902C1101.79 339.421 1009.91 242.026 1009.91 242.026C1009.91 242.026 906.222 129.657 819.816 77.7942C733.411 25.9314 621.084 0 526.038 0C430.993 0 369.019 26.409 284.103 77.7942C218.646 117.405 163.136 181.52 137.215 207.451C111.293 233.383 24.8871 354.396 7.60654 440.834C-9.67399 527.272 5.24411 611.004 24.8876 717.435C42.1404 810.913 76.7313 907.599 94.0119 950.818C111.292 994.037 168.525 1089.62 249.541 1140.98Z" fill="black"/>
</svg>
