<svg width="800" height="800" viewBox="0 0 800 800" fill="none" xmlns="http://www.w3.org/2000/svg"><path d="M0 100C0 44.772 44.772 0 100 0h600c55.229 0 100 44.772 100 100v600c0 55.229-44.771 100-100 100H100C44.772 800 0 755.229 0 700z" fill="url(#a)"/><path d="M115.997 471.75c0-24.162 19.587-43.75 43.749-43.75h164.498c24.162 0 43.75 19.588 43.75 43.75v164.5c0 24.163-19.588 43.75-43.75 43.75H159.746c-24.162 0-43.749-19.587-43.749-43.75zM423.993 246c0-69.588 56.411-126 125.998-126s125.998 56.412 125.998 126-56.411 126-125.998 126-125.998-56.412-125.998-126m-307.996-82.25c0-24.162 19.587-43.75 43.749-43.75h164.498c24.162 0 43.75 19.588 43.75 43.75v164.5c0 24.163-19.588 43.75-43.75 43.75H159.746c-24.162 0-43.749-19.587-43.749-43.75zm308.006 301.584c0-10.309 8.357-18.666 18.667-18.666h214.663c10.309 0 18.666 8.357 18.666 18.666s-8.357 18.667-18.666 18.667H442.67c-10.31 0-18.667-8.357-18.667-18.667m0 88.534c0-10.31 8.357-18.667 18.667-18.667h214.663c10.309 0 18.666 8.357 18.666 18.667 0 10.309-8.357 18.666-18.666 18.666H442.67c-10.31 0-18.667-8.357-18.667-18.666m0 88.533c0-10.309 8.357-18.667 18.667-18.667h214.663c10.309 0 18.666 8.358 18.666 18.667s-8.357 18.667-18.666 18.667H442.67c-10.31 0-18.667-8.358-18.667-18.667" fill="#fff"/><defs><linearGradient id="a" x1="400" y1="0" x2="400" y2="800" gradientUnits="userSpaceOnUse"><stop stop-color="#641dd7"/><stop offset="1" stop-color="#4608ad"/></linearGradient></defs></svg>