<svg xmlns="http://www.w3.org/2000/svg" width="136" height="32" viewBox="0 0 102 24" fill="none"><path d="M1.50012 14.6906C1.50012 13.7845 2.23464 13.05 3.14071 13.05H9.3093C10.2154 13.05 10.9499 13.7845 10.9499 14.6906V20.8594C10.9499 21.7655 10.2154 22.5 9.30931 22.5H3.14071C2.23464 22.5 1.50012 21.7655 1.50012 20.8594V14.6906Z" fill="white"></path><path d="M13.0498 6.225C13.0498 3.61546 15.1652 1.5 17.7747 1.5C20.3842 1.5 22.4996 3.61546 22.4996 6.225C22.4996 8.83454 20.3842 10.95 17.7747 10.95C15.1652 10.95 13.0498 8.83454 13.0498 6.225Z" fill="white"></path><path d="M1.50012 3.14063C1.50012 2.23453 2.23464 1.5 3.14071 1.5H9.3093C10.2154 1.5 10.9499 2.23453 10.9499 3.14062V9.30937C10.9499 10.2155 10.2154 10.95 9.30931 10.95H3.14071C2.23464 10.95 1.50012 10.2155 1.50012 9.30937V3.14063Z" fill="white"></path><rect x="13.0504" y="20.3999" width="9.44977" height="1.4" rx="0.7" fill="white"></rect><rect x="13.0504" y="13.7496" width="9.44977" height="1.4" rx="0.7" fill="white"></rect><rect x="13.0504" y="16.8994" width="9.44977" height="1.4" rx="0.7" fill="white"></rect><path d="M97.872 8.95788C97.872 8.51007 97.9526 8.19094 98.1139 8.00049C98.2751 7.81004 98.5612 7.71481 98.9721 7.71481H99.7524L99.8617 7.82291V15.5438C99.8617 15.76 99.9111 15.9299 100.01 16.0534C100.114 16.1769 100.288 16.2387 100.533 16.2387H101.5C101.552 16.3828 101.591 16.5424 101.617 16.7174C101.643 16.8872 101.656 17.0545 101.656 17.2192C101.656 17.2913 101.654 17.3685 101.648 17.4509C101.648 17.5281 101.638 17.6027 101.617 17.6748C101.342 17.7057 101.035 17.734 100.697 17.7597C100.364 17.7854 100.041 17.7983 99.729 17.7983C99.11 17.7983 98.6444 17.6465 98.3323 17.3428C98.0254 17.0339 97.872 16.5604 97.872 15.9221V8.95788ZM101.75 10.0465C101.812 10.2833 101.844 10.5226 101.844 10.7646C101.844 10.8881 101.836 11.0116 101.82 11.1352C101.805 11.2587 101.781 11.3822 101.75 11.5058L99.0112 11.4595L96.686 11.5058C96.6287 11.269 96.6001 11.0219 96.6001 10.7646C96.6001 10.5329 96.6287 10.2936 96.686 10.0465L99.058 10.0851L101.75 10.0465Z" fill="white"></path><path d="M89.5502 17.2457C89.5606 17.025 89.6258 16.7813 89.7458 16.5144C89.8658 16.2425 90.0067 16.0295 90.1685 15.8756C90.5024 16.05 90.8546 16.204 91.2251 16.3374C91.5956 16.4657 91.9686 16.5298 92.3443 16.5298C92.7044 16.5298 92.9835 16.4606 93.1818 16.322C93.3853 16.1835 93.4896 16.0064 93.4949 15.7909C93.4949 15.6062 93.4244 15.4394 93.2835 15.2906C93.1427 15.1418 92.9313 15.0186 92.6496 14.9211L91.7573 14.6055C91.3973 14.4721 91.066 14.3079 90.7633 14.1129C90.4659 13.9127 90.2285 13.669 90.0511 13.3816C89.8789 13.0943 89.7928 12.7504 89.7928 12.3502C89.7928 11.8524 89.9154 11.4239 90.1607 11.0647C90.4059 10.7004 90.7477 10.4207 91.186 10.2257C91.6243 10.0307 92.1278 9.93323 92.6965 9.93323C93.1557 9.93323 93.641 9.99481 94.1523 10.118C94.6637 10.236 95.0837 10.3745 95.4124 10.5336C95.4229 10.6927 95.402 10.8672 95.3498 11.057C95.3029 11.2469 95.235 11.4239 95.1463 11.5882C95.0576 11.7472 94.9559 11.873 94.8411 11.9653C94.5384 11.8319 94.1993 11.7087 93.8236 11.5958C93.4531 11.4778 93.0774 11.4188 92.6965 11.4188C92.4252 11.4188 92.2113 11.4855 92.0547 11.6189C91.9034 11.7472 91.8278 11.9089 91.8278 12.1039C91.8278 12.2783 91.8904 12.4246 92.0156 12.5426C92.1408 12.6606 92.3339 12.7658 92.5948 12.8582L93.5653 13.2046C94.1549 13.4099 94.6402 13.7049 95.0211 14.0898C95.4072 14.4695 95.6003 14.975 95.6003 15.6062C95.6003 16.3451 95.3107 16.9301 94.7315 17.3611C94.1523 17.7871 93.367 18 92.3756 18C91.8173 18 91.2955 17.9256 90.8103 17.7768C90.325 17.628 89.905 17.4509 89.5502 17.2457Z" fill="white"></path><path d="M88.367 13.9666C88.367 14.7723 88.2366 15.4804 87.9758 16.0911C87.7151 16.6966 87.329 17.1661 86.8177 17.4997C86.3115 17.8333 85.6851 18 84.9386 18C84.1819 18 83.5478 17.8307 83.0365 17.492C82.5303 17.1533 82.1494 16.6812 81.8937 16.0757C81.6381 15.4702 81.5102 14.7671 81.5102 13.9666C81.5102 13.1661 81.6381 12.4631 81.8937 11.8576C82.1545 11.252 82.538 10.7799 83.0442 10.4413C83.5555 10.1026 84.187 9.93323 84.9386 9.93323C85.6903 9.93323 86.3217 10.1051 86.833 10.4489C87.3444 10.7876 87.7279 11.2597 87.9835 11.8653C88.2392 12.4656 88.367 13.1661 88.367 13.9666ZM83.5657 13.9666C83.5657 14.4182 83.6015 14.8364 83.6731 15.2213C83.7498 15.601 83.8879 15.9089 84.0873 16.145C84.2867 16.3759 84.5705 16.4913 84.9386 16.4913C85.317 16.4913 85.6033 16.3759 85.7976 16.145C85.9919 15.9089 86.1249 15.601 86.1965 15.2213C86.268 14.8364 86.3038 14.4182 86.3038 13.9666C86.3038 13.5202 86.268 13.1045 86.1965 12.7197C86.1249 12.3348 85.9919 12.0269 85.7976 11.796C85.6033 11.5599 85.317 11.4419 84.9386 11.4419C84.5705 11.4419 84.2867 11.5599 84.0873 11.796C83.8879 12.0269 83.7498 12.3348 83.6731 12.7197C83.6015 13.1045 83.5657 13.5202 83.5657 13.9666Z" fill="white"></path><path d="M80.7395 10.0338C80.7395 10.8851 80.5675 11.6011 80.2236 12.1818C79.8797 12.7569 79.4033 13.1938 78.7945 13.4926C78.1912 13.7857 77.5006 13.9323 76.7226 13.9323H74.211V12.2325C74.3857 12.2213 74.6338 12.2128 74.9551 12.2072C75.2765 12.1959 75.5922 12.1874 75.9023 12.1818C76.218 12.1762 76.4435 12.1733 76.5788 12.1733C77.0806 12.1733 77.4639 12.0578 77.7289 11.8266C77.9939 11.5955 78.1715 11.3164 78.2617 10.9894C78.3575 10.6568 78.4054 10.3383 78.4054 10.0338C78.4054 9.72938 78.3575 9.41367 78.2617 9.08668C78.1715 8.75405 77.9939 8.47498 77.7289 8.24947C77.4639 8.01832 77.0806 7.90275 76.5788 7.90275C76.3759 7.90275 76.1532 7.90275 75.9107 7.90275C75.674 7.89711 75.4287 7.89147 75.175 7.88584V17.7716C74.989 17.8055 74.7916 17.8252 74.583 17.8308C74.3745 17.8421 74.1912 17.8478 74.0334 17.8478C73.8868 17.8478 73.7036 17.8421 73.4837 17.8308C73.2695 17.8252 73.0749 17.8055 72.9002 17.7716V6.3129L73.0186 6.19451C73.6951 6.18323 74.3293 6.17196 74.9213 6.16068C75.5189 6.14941 76.1193 6.14377 76.7226 6.14377C77.5006 6.14377 78.1912 6.28471 78.7945 6.5666C79.3977 6.84849 79.8713 7.27696 80.2152 7.85201C80.5647 8.42706 80.7395 9.15433 80.7395 10.0338Z" fill="white"></path><path d="M67.312 8.567C67.312 8.19142 67.3724 7.92046 67.4933 7.75413C67.6141 7.5878 67.8454 7.50464 68.187 7.50464H68.8018L68.9043 7.61731V15.9794C68.9043 16.1887 68.9542 16.3577 69.0541 16.4865C69.1539 16.6099 69.3195 16.6716 69.5507 16.6716H70.6385C70.6806 16.7896 70.7121 16.9237 70.7331 17.074C70.7594 17.2188 70.7725 17.3637 70.7725 17.5086C70.7725 17.5676 70.7699 17.6293 70.7647 17.6937C70.7647 17.7581 70.7568 17.8171 70.741 17.8708C70.4782 17.9083 70.1971 17.9378 69.8975 17.9593C69.598 17.9807 69.2932 17.9915 68.9831 17.9915C68.4471 17.9915 68.0346 17.8547 67.7455 17.581C67.4565 17.302 67.312 16.8862 67.312 16.3335V8.567ZM70.8514 9.95935C70.9039 10.1579 70.9302 10.3591 70.9302 10.563C70.9302 10.6756 70.9249 10.7829 70.9144 10.8849C70.9039 10.9815 70.8829 11.0807 70.8514 11.1827L68.2737 11.1424L66.1611 11.1827C66.1138 10.9842 66.0901 10.7776 66.0901 10.563C66.0901 10.3698 66.1138 10.1686 66.1611 9.95935L68.2973 9.99154L70.8514 9.95935Z" fill="white"></path><path d="M65.0419 10.0206C65.0419 10.2442 65.0097 10.5025 64.9453 10.7953C64.8862 11.0882 64.7842 11.3491 64.6392 11.578C64.5372 11.5514 64.4298 11.5328 64.317 11.5221C64.2043 11.5062 64.0942 11.4982 63.9868 11.4982C63.6808 11.4982 63.4123 11.5621 63.1814 11.6899C62.9559 11.8123 62.7626 11.9747 62.6016 12.1771C62.4405 12.3794 62.3036 12.6004 62.1908 12.84C62.0834 13.0743 61.9948 13.3085 61.925 13.5428L61.6834 13.2393C61.6888 12.8613 61.7371 12.4806 61.8284 12.0972C61.925 11.7085 62.0673 11.3517 62.2552 11.0269C62.4485 10.6968 62.7036 10.4332 63.0204 10.2362C63.3372 10.0339 63.7264 9.93273 64.1882 9.93273C64.3332 9.93273 64.4728 9.94072 64.607 9.95669C64.7466 9.96734 64.8916 9.98864 65.0419 10.0206ZM60.0002 10.8033C60.0377 10.6542 60.1156 10.4945 60.2337 10.3241C60.3518 10.1484 60.4753 10.0153 60.6042 9.92474C61.1411 10.0419 61.5385 10.3108 61.7962 10.7314C62.0593 11.1467 62.2096 11.6712 62.2472 12.3048V17.9276C62.1398 17.9489 62.0136 17.9649 61.8687 17.9756C61.7237 17.9862 61.576 17.9915 61.4257 17.9915C61.2754 17.9915 61.1277 17.9862 60.9827 17.9756C60.8378 17.9649 60.7089 17.9489 60.5961 17.9276V12.4486C60.5961 12.0226 60.5317 11.6739 60.4028 11.4023C60.274 11.1308 60.1398 10.9311 60.0002 10.8033Z" fill="white"></path><path d="M52.2602 15.6979C52.2602 15.0998 52.3932 14.6109 52.6592 14.2312C52.9305 13.8463 53.2949 13.5629 53.7524 13.3808C54.2153 13.1988 54.7366 13.1078 55.3165 13.1078C55.6144 13.1078 55.9495 13.1208 56.3219 13.1468C56.6996 13.1728 57.0507 13.2222 57.3752 13.295V14.3794C57.0933 14.3118 56.7741 14.2702 56.4177 14.2546C56.0612 14.2338 55.7288 14.2234 55.4202 14.2234C54.9361 14.2234 54.5611 14.3456 54.2951 14.5901C54.0291 14.8293 53.8961 15.1596 53.8961 15.5809C53.8961 15.8981 53.9865 16.1686 54.1674 16.3922C54.3536 16.6107 54.6222 16.7199 54.9733 16.7199C55.3617 16.7199 55.7713 16.5899 56.2022 16.3298C56.6331 16.0646 56.9975 15.6745 57.2954 15.1596L57.5508 16.3844C57.3593 16.6029 57.1225 16.8369 56.8406 17.0866C56.5586 17.3362 56.2315 17.5495 55.8591 17.7263C55.492 17.9031 55.0744 17.9915 54.6063 17.9915C54.0796 17.9915 53.6407 17.8771 53.2896 17.6483C52.9438 17.4194 52.6858 17.1308 52.5156 16.7823C52.3453 16.4286 52.2602 16.0672 52.2602 15.6979ZM58.9153 17.071C58.8781 17.2166 58.7983 17.3726 58.6759 17.5391C58.5589 17.7003 58.4339 17.8225 58.3009 17.9057C57.9657 17.8381 57.6944 17.7159 57.487 17.5391C57.2795 17.3622 57.1252 17.1516 57.0241 16.9071C56.9284 16.6575 56.8699 16.3948 56.8486 16.1192V12.6007C56.8486 12.1118 56.7342 11.7607 56.5054 11.5475C56.2767 11.329 55.9548 11.2198 55.5399 11.2198C55.1409 11.2198 54.7286 11.2796 54.303 11.3992C53.8775 11.5189 53.4519 11.6567 53.0263 11.8127C52.8986 11.6879 52.7895 11.5137 52.6991 11.29C52.614 11.0612 52.5661 10.8427 52.5555 10.6347C52.8534 10.5099 53.1912 10.3928 53.5689 10.2836C53.9466 10.1744 54.3323 10.0886 54.726 10.0262C55.125 9.95855 55.5053 9.92474 55.8671 9.92474C56.3937 9.92474 56.8512 10.0184 57.2396 10.2056C57.6279 10.3928 57.9285 10.6789 58.1413 11.0638C58.3594 11.4486 58.4685 11.9401 58.4685 12.5383V15.7369C58.4685 16.0282 58.4977 16.2856 58.5562 16.5092C58.6148 16.7277 58.7345 16.9149 58.9153 17.071Z" fill="white"></path><path d="M40.9242 9.99606C41.2624 9.99606 41.5002 10.0991 41.6376 10.3051C41.775 10.5111 41.8437 10.7964 41.8437 11.1609V17.8885C41.7327 17.9097 41.6059 17.9255 41.4632 17.9361C41.3258 17.9466 41.1832 17.9519 41.0352 17.9519C40.8872 17.9519 40.7419 17.9466 40.5992 17.9361C40.4566 17.9255 40.3297 17.9097 40.2188 17.8885V10.107L40.3139 9.99606H40.9242ZM44.507 12.9201C44.507 12.3654 44.4278 11.9745 44.2692 11.7473C44.1107 11.5149 43.8756 11.3986 43.5638 11.3986C43.3048 11.3986 43.0248 11.4832 42.7236 11.6522C42.4223 11.816 42.1449 12.0352 41.8913 12.3099C41.6376 12.5846 41.4368 12.891 41.2889 13.2291V11.6364C41.5214 11.3088 41.7856 11.0183 42.0815 10.7647C42.3827 10.5058 42.7024 10.3025 43.0406 10.1545C43.3841 10.0013 43.7329 9.92474 44.0869 9.92474C44.5467 9.92474 44.9298 10.0357 45.2363 10.2576C45.5428 10.4742 45.77 10.77 45.918 11.1451C46.0712 11.5149 46.1478 11.9269 46.1478 12.3812V17.8885C46.0316 17.9097 45.9021 17.9255 45.7594 17.9361C45.6168 17.9466 45.4741 17.9519 45.3314 17.9519C45.1834 17.9519 45.0381 17.9466 44.8954 17.9361C44.7528 17.9255 44.6233 17.9097 44.507 17.8885V12.9201ZM48.8112 12.9042C48.8112 12.3495 48.7292 11.9613 48.5654 11.7394C48.4069 11.5122 48.1717 11.3986 47.86 11.3986C47.6063 11.3986 47.3315 11.4779 47.0356 11.6364C46.745 11.7948 46.4675 12.0141 46.2033 12.2941C45.9391 12.5741 45.7198 12.8989 45.5454 13.2687V11.4462C45.8096 11.1609 46.095 10.9047 46.4015 10.6775C46.7133 10.4451 47.0382 10.2628 47.3764 10.1308C47.7199 9.99342 48.0661 9.92474 48.4148 9.92474C48.8746 9.92474 49.255 10.0357 49.5563 10.2576C49.8575 10.4794 50.0794 10.7779 50.2221 11.153C50.37 11.5228 50.444 11.9401 50.444 12.405V16.2165C50.444 16.4912 50.4625 16.7527 50.4995 17.001C50.5365 17.244 50.6052 17.458 50.7056 17.6429C50.5841 17.7432 50.4308 17.8251 50.2459 17.8885C50.0662 17.9572 49.8786 17.9915 49.6831 17.9915C49.3607 17.9915 49.1335 17.9044 49.0014 17.73C48.8746 17.5557 48.8112 17.2969 48.8112 16.9535V12.9042Z" fill="white"></path><path d="M30.0001 16.723C30.0283 16.4637 30.1157 16.2072 30.2623 15.9535C30.4089 15.6998 30.5752 15.4968 30.7612 15.3446C31.2517 15.6659 31.7957 15.9365 32.3934 16.1564C32.991 16.3763 33.5829 16.4862 34.1692 16.4862C34.8514 16.4862 35.3785 16.3396 35.7506 16.0465C36.1284 15.7477 36.3172 15.3643 36.3172 14.8964C36.3172 14.5017 36.1847 14.1522 35.9198 13.8478C35.6548 13.5377 35.2742 13.2783 34.7781 13.0697L32.7316 12.2072C32.0269 11.9084 31.4631 11.525 31.0403 11.0571C30.6175 10.5891 30.406 9.99435 30.406 9.27272C30.406 8.6582 30.5667 8.1057 30.8881 7.61522C31.2151 7.1191 31.6661 6.72727 32.2411 6.43975C32.8162 6.14658 33.4814 6 34.2369 6C34.9416 6 35.6041 6.0902 36.2242 6.27061C36.8444 6.45102 37.3743 6.65116 37.8141 6.87103C37.8028 7.13037 37.7379 7.38971 37.6196 7.64904C37.5012 7.90274 37.3489 8.11134 37.1629 8.27484C36.7231 8.05496 36.2383 7.86892 35.7084 7.7167C35.184 7.55884 34.702 7.47991 34.2623 7.47991C33.6365 7.47991 33.1432 7.63213 32.7824 7.93657C32.4215 8.24101 32.2411 8.61874 32.2411 9.06976C32.2411 9.44185 32.3708 9.74629 32.6301 9.98308C32.8951 10.2199 33.2362 10.4256 33.6534 10.6004L35.6745 11.4376C36.1537 11.6406 36.585 11.8915 36.9684 12.1903C37.3518 12.4891 37.6534 12.8386 37.8733 13.2389C38.0931 13.6392 38.2031 14.093 38.2031 14.6004C38.2031 15.2431 38.0508 15.821 37.7464 16.334C37.442 16.847 36.9853 17.253 36.3764 17.5518C35.7675 17.8449 34.9952 17.9915 34.0593 17.9915C33.3602 17.9915 32.6499 17.8788 31.9282 17.6532C31.2122 17.4277 30.5695 17.1177 30.0001 16.723Z" fill="white"></path></svg>