<svg width="120" height="111" viewBox="0 0 120 111" fill="none" xmlns="http://www.w3.org/2000/svg"><path d="M83.308 78.01c9.862-4.069 17.033-10.222 16.015-13.743-1.017-3.522-9.836-3.078-19.699.99-9.862 4.07-17.032 10.223-16.015 13.744 1.017 3.522 9.837 3.078 19.7-.99Zm0 0c-9.862 4.07-17.016 10.28-15.978 13.874 1.038 3.593 9.875 3.208 19.737-.861 9.863-4.069 17.016-10.28 15.978-13.874-1.038-3.593-9.874-3.208-19.737.861Zm1.88 6.506c9.862-4.068 17.015-10.28 15.977-13.873s-9.874-3.208-19.737.86c-9.862 4.07-17.015 10.281-15.977 13.875s9.874 3.208 19.737-.862Zm0 0c-9.863 4.07-17.033 10.223-16.016 13.744 1.017 3.522 9.837 3.078 19.7-.991s17.032-10.222 16.015-13.744c-1.018-3.521-9.837-3.077-19.7.991Z" stroke="#000" stroke-width="1.5"/><path fill-rule="evenodd" clip-rule="evenodd" d="M52.778 2C64.23 2 73.513 12.234 73.513 24.857V75.42H67.23V26.34c0-8.83-6.47-15.989-14.452-15.989-7.981 0-14.452 7.159-14.452 15.99v49.08h-6.283V24.856C32.043 12.234 41.326 2 52.778 2" fill="#000"/><mask id="a" style="mask-type:luminance" maskUnits="userSpaceOnUse" x="32" y="2" width="42" height="74"><path fill-rule="evenodd" clip-rule="evenodd" d="M52.778 2C64.23 2 73.513 12.234 73.513 24.857V75.42H67.23V26.34c0-8.83-6.47-15.989-14.452-15.989-7.981 0-14.452 7.159-14.452 15.99v49.08h-6.283V24.856C32.043 12.234 41.326 2 52.778 2" fill="#fff"/></mask><g mask="url(#a)"><path d="M73.513 75.42v.348h.314v-.348zm-6.284 0h-.314v.348h.314zm-28.903 0v.348h.314v-.348zm-6.283 0h-.314v.348h.314zm41.784-50.563c0-12.817-9.425-23.205-21.05-23.205v.696c11.28 0 20.422 10.08 20.422 22.51zm0 50.563V24.857h-.628V75.42zm-6.597.348h6.283v-.696h-6.284zm.314-.348V26.34h-.629v49.08zm0-49.08c0-9.023-6.612-16.337-14.766-16.337v.696c7.808 0 14.137 7.003 14.137 15.641zM52.778 10.003c-8.155 0-14.766 7.314-14.766 16.337h.628c0-8.638 6.33-15.641 14.138-15.641zM38.012 26.34v49.08h.628V26.34zm-5.97 49.428h6.284v-.696h-6.283zm-.314-50.91V75.42h.629V24.857zm21.05-23.206c-11.624 0-21.05 10.388-21.05 23.205h.629c0-12.43 9.141-22.51 20.42-22.51z" fill="#000"/></g><path fill-rule="evenodd" clip-rule="evenodd" d="M55.605 2C67.057 2 76.34 12.234 76.34 24.857V75.42h-6.283V26.34c0-8.83-6.47-15.989-14.452-15.989-7.981 0-14.451 7.159-14.451 15.99v49.08H34.87V24.856C34.87 12.234 44.154 2 55.605 2" fill="#91a8ed"/><mask id="b" style="mask-type:luminance" maskUnits="userSpaceOnUse" x="34" y="2" width="43" height="74"><path fill-rule="evenodd" clip-rule="evenodd" d="M55.605 2C67.057 2 76.34 12.234 76.34 24.857V75.42h-6.283V26.34c0-8.83-6.47-15.989-14.452-15.989-7.981 0-14.451 7.159-14.451 15.99v49.08H34.87V24.856C34.87 12.234 44.154 2 55.605 2" fill="#fff"/></mask><g mask="url(#b)"><path d="M76.34 75.42v.348h.314v-.348zm-6.283 0h-.314v.348h.314zm-28.904 0v.348h.314v-.348zm-6.283 0h-.314v.348h.314zm41.784-50.563c0-12.817-9.425-23.205-21.05-23.205v.696c11.28 0 20.422 10.08 20.422 22.51zm0 50.563V24.857h-.628V75.42zm-6.597.348h6.283v-.696h-6.283zm.314-.348V26.34h-.628v49.08zm0-49.08c0-9.023-6.611-16.337-14.766-16.337v.696c7.808 0 14.138 7.003 14.138 15.641zM55.605 10.003c-8.155 0-14.766 7.314-14.766 16.337h.628c0-8.638 6.33-15.641 14.138-15.641zM40.839 26.34v49.08h.628V26.34zm-5.97 49.428h6.284v-.696H34.87zm-.313-50.91V75.42h.628V24.857zM55.605 1.651c-11.624 0-21.05 10.388-21.05 23.205h.629c0-12.43 9.141-22.51 20.42-22.51z" fill="#000"/></g><path d="M29.844 36.317h42.727c8.198 0 14.845 7.361 14.845 16.441v39.668c0 9.08-6.647 16.441-14.845 16.441H29.844c-8.198 0-14.844-7.361-14.844-16.44v-39.67c0-9.08 6.646-16.44 14.844-16.44Z" fill="#000" stroke="#000" stroke-width="1.5"/><path d="M35.813 36.665H78.54c8.198 0 14.844 7.361 14.844 16.441v39.668c0 9.08-6.646 16.441-14.844 16.441H35.813c-8.198 0-14.844-7.361-14.844-16.44v-39.67c0-9.08 6.646-16.44 14.844-16.44Z" fill="#f1f332" stroke="#000" stroke-width="1.5"/><path d="M76.105 72.94c0 11.577-8.543 20.965-19.086 20.965S37.934 84.517 37.934 72.94s8.543-20.964 19.085-20.964 19.086 9.388 19.086 20.964Z" fill="#91a8ed" stroke="#000" stroke-width="1.5"/><path fill-rule="evenodd" clip-rule="evenodd" d="M59.945 72.553c1.879-1.112 3.158-3.306 3.158-5.831 0-3.65-2.671-6.608-5.966-6.608-3.294 0-5.965 2.959-5.965 6.608 0 2.679 1.44 4.986 3.509 6.023v11.24c0 .77.563 1.392 1.257 1.392h2.75c.694 0 1.257-.623 1.257-1.391z" fill="#ff91e7"/><mask id="c" style="mask-type:luminance" maskUnits="userSpaceOnUse" x="51" y="60" width="13" height="26"><path fill-rule="evenodd" clip-rule="evenodd" d="M59.945 72.553c1.879-1.112 3.158-3.306 3.158-5.831 0-3.65-2.671-6.608-5.966-6.608-3.294 0-5.965 2.959-5.965 6.608 0 2.679 1.44 4.986 3.509 6.023v11.24c0 .77.563 1.392 1.257 1.392h2.75c.694 0 1.257-.623 1.257-1.391z" fill="#fff"/></mask><g mask="url(#c)"><path d="m59.944 72.553-.222-.46-.249.147v.313zm-5.264.192h.472v-.337l-.277-.139zm7.951-6.023c0 2.325-1.177 4.346-2.909 5.37l.444.921c2.027-1.2 3.408-3.566 3.408-6.291zm-5.494-6.086c3.034 0 5.494 2.725 5.494 6.086h.943c0-3.938-2.882-7.13-6.437-7.13zm-5.494 6.086c0-3.361 2.46-6.086 5.494-6.086v-1.044c-3.555 0-6.437 3.192-6.437 7.13zm3.232 5.547c-1.907-.956-3.232-3.08-3.232-5.547H50.7c0 2.891 1.554 5.38 3.786 6.498zm.277 11.717V72.745h-.943v11.24zm.785.87c-.433 0-.785-.39-.785-.87h-.943c0 1.056.774 1.913 1.728 1.913zm2.75 0h-2.75v1.043h2.75zm.786-.87c0 .48-.352.87-.785.87v1.043c.954 0 1.727-.857 1.727-1.913zm0-11.433v11.433h.943V72.553z" fill="#000"/></g><path fill-rule="evenodd" clip-rule="evenodd" d="M60.482 66.673c0 2.525-1.279 4.72-3.158 5.831v11.27c0 .82-.573 1.49-1.3 1.55q.05.005.1.005h2.75c.694 0 1.257-.624 1.257-1.392V72.504c1.88-1.112 3.158-3.306 3.158-5.831 0-3.65-2.67-6.607-5.965-6.607q-.727.001-1.404.184c2.617.699 4.562 3.31 4.562 6.423" fill="#000"/><path fill-rule="evenodd" clip-rule="evenodd" d="M55.45 94.097c9.935-.878 17.75-10.015 17.75-21.157s-7.815-20.278-17.75-21.156a18 18 0 0 1 1.57-.07c10.671 0 19.321 9.504 19.321 21.226 0 11.723-8.65 21.226-19.32 21.226q-.795 0-1.572-.07" fill="#000"/><mask id="d" style="mask-type:luminance" maskUnits="userSpaceOnUse" x="55" y="51" width="22" height="44"><path fill-rule="evenodd" clip-rule="evenodd" d="M55.45 94.097c9.935-.878 17.75-10.015 17.75-21.157s-7.815-20.278-17.75-21.156a18 18 0 0 1 1.57-.07c10.671 0 19.321 9.504 19.321 21.226 0 11.723-8.65 21.226-19.32 21.226q-.795 0-1.572-.07" fill="#fff"/></mask><g mask="url(#d)"><path d="m55.45 94.097-.038-.52v1.04zm0-42.313-.038-.52v1.04zM72.729 72.94c0 10.864-7.62 19.78-17.317 20.637l.075 1.04c10.176-.9 18.184-10.257 18.184-21.677zM55.412 52.304c9.697.857 17.317 9.773 17.317 20.636h.942c0-11.419-8.008-20.777-18.184-21.677zm.075 0a17 17 0 0 1 1.533-.067v-1.044q-.812 0-1.608.07zm1.533-.067c10.415 0 18.85 9.273 18.85 20.703h.943c0-12.014-8.865-21.747-19.793-21.747zM75.87 72.94c0 11.43-8.435 20.704-18.85 20.704v1.044c10.928 0 19.793-9.733 19.793-21.748zM57.02 93.644q-.774 0-1.533-.067l-.075 1.04q.796.07 1.608.071z" fill="#000"/></g><path d="M36.515 69.06c-.022-.12-.119-.208-.23-.208s-.209.087-.231.209l-1.437 7.774-7.02 1.591c-.109.025-.188.132-.188.256s.079.23.189.255l7.02 1.591 1.435 7.775c.023.121.12.209.231.209s.209-.088.231-.21l1.437-7.774 7.02-1.59c.109-.026.188-.132.188-.256s-.08-.231-.189-.256l-7.02-1.59zm68.135-50.27c.022-.13.119-.226.231-.226s.209.095.231.227l1.624 9.654 7.932 1.975c.11.027.188.142.188.276 0 .133-.078.249-.188.276l-7.932 1.975-1.624 9.654c-.022.132-.119.227-.231.227s-.209-.095-.231-.227l-1.624-9.654-7.932-1.975c-.11-.027-.188-.143-.188-.276s.078-.249.188-.276l7.932-1.975z" fill="#fff" stroke="#000" stroke-width="1.5" stroke-linejoin="round"/></svg>