<svg width="44" height="44" viewBox="0 0 44 44" fill="none" xmlns="http://www.w3.org/2000/svg"><rect width="44" height="44" rx="6" fill="url(#a)"/><path fill-rule="evenodd" clip-rule="evenodd" d="m7.662 24.08.462-.461-.77-.617zm1.85-2.465a70 70 0 0 1-1.08-.925l-.77 1.233.925.925zm-1.234 3.39 1.08 1.08.77-.925-1.233-1.08zm1.696-4.161 1.079-1.387-1.08-.771-.924 1.079zm-.617 2.466 1.234 1.08.77-1.388-1.233-.925zm2.93-5.24-1.08-.617-.77.616.924.925zm.461 2.774-1.233-.925-.925 1.387 1.234 1.08z" fill="#fff"/><path fill-rule="evenodd" clip-rule="evenodd" d="m12.903 17.607-.154.308.925.925-1.08-.616-.77 1.079 1.233.924 1.388-2.003-1.08 2.466.309.154.308.462h-.462l-.309-.154-.924 1.542.462.462.77.617.31-.463-.155.617.617.462a13.6 13.6 0 0 1 .616-4.47l.77-2.004c-1.232-.462-2.311-.616-3.699-.77h-.154l.617.462z" fill="#fff"/><path fill-rule="evenodd" clip-rule="evenodd" d="M22.306 35.488h.77l3.084.462 1.233.154h2.62v.154l1.85-.77c.308-.463 1.079-1.388.77-1.696s-3.082.616-3.39.154c-.155-.308 4.778-4.008 5.086-9.248l-.925.154c-1.079 2.774-4.161 5.857-5.086 6.32l-.463.154c-.925.154-2.466 0-3.082-.463-.617-.462-2.467-4.162-2.93-5.703-1.695-.462-3.699-1.387-4.007-2.312-.308-1.233 2.929-4.779 3.391-4.47.154.154-1.079 2.466-.77 3.082.308.617 2.157 1.85 4.007 1.696 1.542 0 3.083-1.079 4.008-1.85l.308-.77c.154-.463-.154-.463-.462-.463-.309.154 0 .617 0 .77.154.155 0 .31-.154 0l-.309-.307h-.154l-.308-.463-.154-.154v-.154l.154-.154v-.154l.308-.155c1.08-.308 3.545-.154 3.083.617l-.617.925c-.462.462 0-.308 0-.463 0-.308-.154-.308-.308-.154l-.154 1.08c.617.616 2.004 1.54 3.237 1.695 1.541 0 3.391-1.08 3.7-1.85.154-.616-2.775-7.09-4.625-8.015-2.004-.925-10.173.616-10.482.462-.462 0-1.079-1.387-1.387-1.541-.462-.154-1.695 1.079-1.695 1.541 0 .154.925.925.925 1.387.154.309-.771.617-3.083 6.474-1.08 2.775-.771 6.937.77 7.554.771.462.617-2.004.925-2.004 1.388 0 1.85 2.928-.154 2.928-1.387 0-2.466-1.079-2.929-2.466l-.616-2.62-.617-.463-.77 1.85c1.079.925 2.003 1.695 1.85 1.85 0 .154-.926-.309-2.159-1.233l-.616 1.54v.155l1.079.77c.308-.616.462-1.387.616-1.232l-.308 1.541c1.541 1.233 3.083 2.312 4.316 2.929.462.154 1.233.462 1.233.925.154.308-.308 1.233-.154 1.541s2.466 1.079 2.62.617l.154-.309-.308-.616h.308l.155.154.616.462zm3.083-17.419v.155h-.154l-.462.154a.924.924 0 1 1 .462-1.542h.154l.154.77c.154.155 0 .31-.154.463m7.861-.154v.154c-.154.309-.462.309-.77.309a.924.924 0 1 1 .308-1.542h.154l.154.154.308.463v.154zm-21.425 8.478-1.08-.77-.616 1.232 1.079 1.08a9.6 9.6 0 0 0 .77-1.388zm.462-.462.925-1.696-.771-.462-.462-.463-.771 1.542.617.616z" fill="#fff"/><path fill-rule="evenodd" clip-rule="evenodd" d="m28.163 30.71 1.233-1.234c1.233-1.387 2.62-3.545 2.928-4.778l-.924-.617-1.696-1.85-1.08 4.624-.153.463-1.233 3.545zm.308-8.325c-1.233 1.233-3.7 2.775-4.933 2.93.308 1.232.925 2.774 1.542 4.007l1.079 1.233.616.154v-.154l.617-2.158.308-1.08zm-6.628-10.79a3.64 3.64 0 0 1 1.387-1.233l2.158-.308c-.617-1.387-1.08-1.85-1.696-2.312-2.158.308-4.624 1.233-4.932 2.929l1.233-.617c.462 0 1.387 1.079 1.85 1.541m4.624-1.541h2.004l-1.233-1.541c-.463-.463-1.388-.771-2.467-.771.617.616 1.233 1.233 1.696 2.312m-2.929 1.85 3.083-.155h3.545c-.462-1.54-4.778-1.387-6.628.155" fill="#fff"/><defs><linearGradient id="a" x1="5.772" y1="5.742" x2="39.103" y2="39.06" gradientUnits="userSpaceOnUse"><stop stop-color="#aa7a55"/><stop offset="1" stop-color="#8c5934"/></linearGradient></defs></svg>