<svg width="48" height="48" viewBox="0 0 48 48" fill="none" xmlns="http://www.w3.org/2000/svg"><path d="M2 8a6 6 0 0 1 6-6h32a6 6 0 0 1 6 6v32a6 6 0 0 1-6 6H8a6 6 0 0 1-6-6z" fill="rgb(238, 0, 238)"/><g clip-path="url(#a)"><mask id="b" style="mask-type:luminance" maskUnits="userSpaceOnUse" x="0" y="0" width="48" height="48"><path d="M48 0H0v48h48z" fill="#fff"/></mask><g mask="url(#b)" fill="#fff"><path d="M18.001 33.997h-3.998V13.999h3.998zm15.996-16H21.999v-3.998h11.998zm0 8H21.999v-3.998h11.998zm0 8H21.999v-3.998h11.998z"/></g></g><defs><clipPath id="a"><path fill="#fff" d="M0 0h48v48H0z"/></clipPath></defs></svg>