<svg width="44" height="44" viewBox="0 0 48 48" fill="none" xmlns="http://www.w3.org/2000/svg"><rect x="2" y="2" width="44" height="44" rx="6" fill="#34a851" fill-opacity=".2"/><g clip-path="url(#a)"><path fill-rule="evenodd" clip-rule="evenodd" d="M.002 43.077V4.105A4.107 4.107 0 0 1 4.105 0h38.97z" fill="#1ea361"/><path fill-rule="evenodd" clip-rule="evenodd" d="M.002 43.893v-.818L43.077.003h.818A4.107 4.107 0 0 1 48 4.107v.82L4.925 48h-.822A4.107 4.107 0 0 1 0 43.895" fill="#fedb43"/><path fill-rule="evenodd" clip-rule="evenodd" d="m4.924 48 19.079-19.075L43.076 48z" fill="#5384c4"/><path fill-rule="evenodd" clip-rule="evenodd" d="M43.077 48 24 28.921l4.921-4.923L48 43.078v.817A4.107 4.107 0 0 1 43.895 48z" fill="#fff"/><path fill-rule="evenodd" clip-rule="evenodd" d="M48 43.077 28.923 23.998 48 4.92z" fill="#c2c2c1"/><path d="M8.563 5.308c2.441-1.117 5.497-.662 7.48 1.167l-1.895 1.882c-1.985-1.968-5.71-1.035-6.64 1.57-1.197 2.563.805 5.932 3.662 5.968 1.87.217 3.737-1.036 4.133-2.899-1.308.002-2.612-.01-3.915.01l-.024-2.418 6.57.09c.165 1.596.052 3.29-.807 4.688-1.347 2.505-4.524 3.6-7.214 2.967-3.325-.69-5.813-4.1-5.36-7.478.231-2.381 1.826-4.56 4.01-5.547" fill="#efefef"/><path d="M37.75 3h.96c2.395.137 4.735 1.306 6.186 3.23.95 1.216 1.48 2.725 1.6 4.256v.57c-.055 2.97-1.955 5.408-3.602 7.718-1.847 2.61-3.554 5.456-4.028 8.672-.126.545.025 1.309-.626 1.554-.152-.119-.331-.218-.439-.384-.193-1.799-.632-3.576-1.41-5.218-.87-1.914-2.082-3.645-3.314-5.335-.75-1.015-1.457-2.065-2.042-3.186-.918-1.678-1.26-3.66-.885-5.543.308-1.475 1.085-2.865 2.163-3.93A8.6 8.6 0 0 1 37.749 3m-.187 5.231c-1.136.253-2.089 1.258-2.185 2.423a2.75 2.75 0 0 0 1.502 2.688 3 3 0 0 0 3.35-.422 2.73 2.73 0 0 0 .698-3.027c-.513-1.283-2.033-2.014-3.365-1.685" fill="#dc4b3e"/><path d="M37.562 8.231c1.33-.34 2.853.39 3.365 1.686.421 1.025.13 2.292-.698 3.026a3 3 0 0 1-3.35.423c-.979-.485-1.621-1.594-1.501-2.689.105-1.175 1.049-2.18 2.184-2.423" fill="#802c27"/></g><defs><clipPath id="a"><path fill="#fff" d="M0 0h48v48H0z"/></clipPath></defs></svg>