<svg width="44" height="44" viewBox="0 0 44 44" fill="none" xmlns="http://www.w3.org/2000/svg"><rect width="44" height="44" rx="6" fill="#ffe01b"/><path d="m37.148 26.65-.563-1.593s2.344-3.562-3.468-4.781c0 0 .375-4.406-1.688-6.469 4.5-4.406 3.469-11.062-6.75-6.75-5.25-10.031-25.5 13.5-17.062 17.25-.844 1.125-.844 6.75 4.968 7.313 3.938 8.437 13.5 9 19.032 6.468 5.53-2.53 8.718-10.593 5.53-11.437M12.492 30.4c-4.782-.468-5.25-7.03-1.125-7.687 4.125-.656 5.156 8.063 1.125 7.688m-1.407-8.905c-1.312 0-2.906 1.78-2.906 1.78C1.804 20.183 19.71-.348 23.554 7.62c0 0-9.375 4.5-12.469 13.875m18.75 7.968c0-.375-1.968.563-5.53-.656.28-1.969 4.5 1.688 11.53-3.094l.563 1.97c2.625-.47 0 8.437-8.438 8.343-6.843-.094-9-7.125-5.25-10.969.75-.75-2.718-2.25-2.062-5.531.281-1.406 1.5-3.469 4.594-2.906 3.093.562 3.75-2.25 5.812-1.22 2.063 1.032.844 4.97 1.125 5.532s3.281.656 3.844 2.25-3.844 5.063-10.688 4.125c-1.593-.187-2.53 1.875-1.5 3.188 2.063 3 10.5 1.03 11.907-1.875-3.563 2.718-10.875 3.75-11.438.843 2.063.938 5.531.375 5.531 0m-12.28-14.812c2.062-2.531 4.78-4.031 4.78-4.031l-.562 1.406s1.969-1.5 4.125-1.5l-.75.75c2.437.094 3.469 1.031 3.469 1.031s-5.72-1.687-11.063 2.344m12.655 3.656c1.22-.094.844 2.719.844 2.719h-.75s-1.312-2.625-.094-2.719m-5.53 3.094c-.845.094-1.782.562-1.688.187.375-1.5 3.843-1.125 3.75.188-.094 1.312-.844-.563-2.063-.375m1.968 1.125c.094.187-.656 0-1.219.094-.562.093-1.125.375-1.125.187 0-.187 2.156-1.031 2.344-.281m1.875.281c.281-.562 1.406 0 1.125.563s-1.406 0-1.125-.563m2.344.188c-.563 0-.563-1.22 0-1.22s.562 1.313 0 1.313zM13.99 27.963c.28.282-.563.844-1.22.375-.655-.468.75-2.718-.937-3.28-1.687-.563-1.218 1.593-1.687 1.312-.469-.282.656-3.282 2.625-2.063s-.563 3.094.562 3.656.47-.187.657 0" fill="#1e1e1e"/></svg>