<svg width="48" height="48" viewBox="0 0 48 48" fill="none" xmlns="http://www.w3.org/2000/svg"><rect x="2" y="2" width="44" height="44" rx="6" fill="#ea6d4a"/><path d="M38.444 26.703c0 .6-.474 1.067-1.015 1.067H26.875c-.541 0-1.015.467-1.015 1 0 .6.474 1.067 1.015 1.067h.406c.541 0 1.015.466 1.015 1 0 .6-.474 1.066-1.015 1.066h-1.285c-.541 0-1.015.467-1.015 1 0 .6.473 1.067 1.015 1.067h6.9c.542 0 1.015.467 1.015 1 0 .6-.473 1.067-1.015 1.067H14.698c-.542 0-1.015-.467-1.015-1 0-.6.473-1.067 1.015-1.067h4.397c.541 0 1.015-.467 1.015-1 0-.6-.474-1.067-1.015-1.067H12.6c-.54 0-1.014-.466-1.014-1 0-.2 0-.333.067-.466.136-.334.541-.6.947-.6h.339c.54 0 1.015-.467 1.015-1 0-.6-.474-1.067-1.015-1.067H9.015c-.541 0-1.015-.467-1.015-1 0-.6.474-1.067 1.015-1.067h.744c-.135-.666-.135-1.333-.135-2 0-6.8 5.615-12.333 12.516-12.333s12.515 5.533 12.515 12.333 0 1.334-.135 2h3.044c.542 0 1.015.467 1.015 1z" fill="#fff"/><path d="M40 30.77c0 .6-.473 1.067-1.014 1.067h-2.233c-.541 0-1.015-.467-1.015-1 0-.6.474-1.067 1.015-1.067h2.233c.54 0 1.014.467 1.014 1m-5.953 0c0 .6-.473 1.067-1.014 1.067H30.8c-.541 0-1.015-.467-1.015-1 0-.6.474-1.067 1.015-1.067h2.232c.542 0 1.015.467 1.015 1" fill="#fff"/></svg>