<svg width="44" height="44" viewBox="0 0 44 44" fill="none" xmlns="http://www.w3.org/2000/svg"><rect width="44" height="44" rx="6" fill="url(#a)"/><path d="M35.718 22.078a13.718 13.718 0 1 0-7.553 12.177 4.778 4.778 0 0 0 7.4-4.008q0-1.618-.926-2.774c.771-1.696 1.08-3.545 1.08-5.395m-24.817 0a11.251 11.251 0 0 1 20.93-5.715 11.25 11.25 0 0 1 .959 9.414 4.778 4.778 0 0 0-6.32 6.628 11.252 11.252 0 0 1-15.568-10.327M30.787 33.33a3.238 3.238 0 1 1-1.404-6.321 3.238 3.238 0 0 1 1.404 6.321" fill="#fff"/><defs><linearGradient id="a" x1="37.28" y1="40.574" x2="6.96" y2="3.741" gradientUnits="userSpaceOnUse"><stop stop-color="#2c1870"/><stop offset="1" stop-color="#783fff"/></linearGradient></defs></svg>