<svg width="44" height="44" viewBox="0 0 44 44" fill="none" xmlns="http://www.w3.org/2000/svg"><rect width="44" height="44" rx="6" fill="url(#a)"/><path d="M21.433 27.626c-.925.462-1.85.925-2.928 1.079-.925.154-2.004.308-2.93 0-1.078-.154-2.157-.462-3.082-1.079-2.312-1.233-3.854-3.083-4.47-5.55-.463-1.54-.308-3.236.308-4.778.154-.77.617-1.695 1.233-2.312.925-1.233 2.158-2.312 3.546-2.928a9.4 9.4 0 0 1 7.707.308c.616.308 1.233.925 1.85 1.541l1.387 1.388c.77.77 1.85 1.233 3.083 1.387.924.154 1.85.154 2.774-.154-1.233 0-2.466-.154-3.545-.771h.154l.617-.154 1.54-.308a7.55 7.55 0 0 1 3.7.462c1.388.617 2.467 1.696 3.237 2.929l.617 2.158q.231 3.93-3.237 6.011-1.387.925-3.237.925c-.308 0-.308 0-.463.308l-1.233 4.316c0 .155-.154.309-.308.155l-3.237-.925h-2.929l-2.158.462c-.924.154-1.541-.308-2.003-.925l-.617-1.079.154-.308c.925-.154 1.85-.617 2.775-1.079.616-.308 1.079-.462 1.541-.925z" fill="#fff"/><defs><linearGradient id="a" x1="38.822" y1="38.818" x2="5.264" y2="5.287" gradientUnits="userSpaceOnUse"><stop stop-color="#0074af"/><stop offset=".2" stop-color="#0375b1"/><stop offset=".4" stop-color="#0c79b7"/><stop offset=".6" stop-color="#1c80c1"/><stop offset=".7" stop-color="#328acf"/><stop offset=".8" stop-color="#4f96e1"/><stop offset="1" stop-color="#7fabff"/></linearGradient></defs></svg>